{"title":"Toni Braxton, Loon - Hit The Freeway [2002/VOB]","uid":10890944,"size":240144384,"categoryP":"video","categoryS":"music_videos","magnet":"?xt=urn:btih:215fb284f46da6322b9fbf5c7b435510891ad44c&amp;dn=Toni+Braxton%2C+Loon+-+Hit+The+Freeway+%5B2002%2FVOB%5D&amp;tr=udp%3A%2F%2Ftracker.openbittorrent.com%3A80&amp;tr=udp%3A%2F%2Fopen.demonii.com%3A1337&amp;tr=udp%3A%2F%2Ftracker.coppersurfer.tk%3A6969&amp;tr=udp%3A%2F%2Fexodus.desync.com%3A6969","seeders":1,"leechers":0,"uploader":"torrent-cracker","files":-1,"time":1409115316,"description":"Taken from Ultimate Smash Hits by Arista Records.\n\nPreview: &lt;a href=&quot;\nhttp://moevideo.net/framevideo/65794.6bc274791e00402b79a5dfa7c9c6&quot; rel=&quot;nofollow&quot; target=&quot;_NEW&quot;&gt;\nhttp://moevideo.net/framevideo/65794.6bc274791e00402b79a5dfa7c9c6&lt;/a&gt;\n\nGeneral\nComplete name                            : Toni Braxton - Hit The FreewayVTS_01_1.VOB\nFormat                                   : MPEG-PS\nFile size                                : 229 MiB\nDuration                                 : 3mn 50s\nOverall bit rate mode                    : Variable\nOverall bit rate                         : 8 344 Kbps\n\nVideo\nID                                       : 224 (0xE0)\nFormat                                   : MPEG Video\nFormat version                           : Version 2\nFormat profile                           : Main@Main\nFormat settings, BVOP                    : Yes\nFormat settings, Matrix                  : Custom\nFormat settings, GOP                     : M=3, N=15\nDuration                                 : 3mn 50s\nBit rate mode                            : Variable\nBit rate                                 : 6 642 Kbps\nMaximum bit rate                         : 8 000 Kbps\nWidth                                    : 720 pixels\nHeight                                   : 480 pixels\nDisplay aspect ratio                     : 4:3\nFrame rate                               : 29.970 fps\nStandard                                 : NTSC\nColor space                              : YUV\nChroma subsampling                       : 4:2:0\nBit depth                                : 8 bits\nScan type                                : Interlaced\nScan order                               : Top Field First\nCompression mode                         : Lossy\nBits/(Pixel*Frame)                       : 0.641\nTime code of first frame                 : 01:08:35;00\nTime code source                         : Group of pictures header\nStream size                              : 182 MiB (80%)\n\nAudio\nID                                       : 189 (0xBD)-160 (0xA0)\nFormat                                   : PCM\nFormat settings, Endianness              : Big\nFormat settings, Sign                    : Signed\nMuxing mode                              : DVD-Video\nDuration                                 : 3mn 50s\nBit rate mode                            : Constant\nBit rate                                 : 1 536 Kbps\nChannel(s)                               : 2 channels\nSampling rate                            : 48.0 KHz\nBit depth                                : 16 bits\nDelay relative to video                  : -286ms\nStream size                              : 42.2 MiB (18%)","torrent":{"xt":"urn:btih:215fb284f46da6322b9fbf5c7b435510891ad44c","amp;dn":"Toni+Braxton%2C+Loon+-+Hit+The+Freeway+%5B2002%2FVOB%5D","amp;tr":["udp%3A%2F%2Ftracker.openbittorrent.com%3A80","udp%3A%2F%2Fopen.demonii.com%3A1337","udp%3A%2F%2Ftracker.coppersurfer.tk%3A6969","udp%3A%2F%2Fexodus.desync.com%3A6969"],"infoHash":"215fb284f46da6322b9fbf5c7b435510891ad44c","infoHashBuffer":{"type":"Buffer","data":[33,95,178,132,244,109,166,50,43,159,191,92,123,67,85,16,137,26,212,76]},"announce":[],"urlList":[]}}